<svg xmlns="http://www.w3.org/2000/svg" xmlns:xlink="http://www.w3.org/1999/xlink" width="500" zoomAndPan="magnify" viewBox="0 0 375 374.999991" height="500" preserveAspectRatio="xMidYMid meet" version="1.0"><defs><clipPath id="55d178ec26"><path d="M 3.710938 3.710938 L 371.210938 3.710938 L 371.210938 371.210938 L 3.710938 371.210938 Z M 3.710938 3.710938 " clip-rule="nonzero"/></clipPath><clipPath id="ab0bda29aa"><path d="M 37.5 201 L 193 201 L 193 223 L 37.5 223 Z M 37.5 201 " clip-rule="nonzero"/></clipPath></defs><g clip-path="url(#55d178ec26)"><path fill="#2ea5e4" d="M 371.210938 187.460938 C 371.210938 190.46875 371.140625 193.476562 370.992188 196.480469 C 370.84375 199.484375 370.621094 202.480469 370.328125 205.472656 C 370.035156 208.464844 369.664062 211.449219 369.222656 214.425781 C 368.78125 217.398438 368.269531 220.359375 367.683594 223.3125 C 367.09375 226.261719 366.4375 229.191406 365.707031 232.109375 C 364.976562 235.027344 364.171875 237.925781 363.300781 240.800781 C 362.425781 243.679688 361.484375 246.535156 360.472656 249.367188 C 359.457031 252.199219 358.375 255.003906 357.226562 257.78125 C 356.074219 260.558594 354.855469 263.308594 353.570312 266.027344 C 352.285156 268.746094 350.933594 271.429688 349.515625 274.082031 C 348.097656 276.734375 346.617188 279.351562 345.070312 281.929688 C 343.523438 284.507812 341.917969 287.046875 340.246094 289.550781 C 338.574219 292.050781 336.84375 294.507812 335.050781 296.921875 C 333.261719 299.339844 331.410156 301.707031 329.503906 304.03125 C 327.597656 306.355469 325.632812 308.632812 323.613281 310.863281 C 321.59375 313.089844 319.519531 315.265625 317.394531 317.394531 C 315.265625 319.519531 313.089844 321.59375 310.863281 323.613281 C 308.632812 325.632812 306.355469 327.597656 304.03125 329.503906 C 301.707031 331.410156 299.339844 333.261719 296.921875 335.050781 C 294.507812 336.84375 292.050781 338.574219 289.550781 340.246094 C 287.046875 341.917969 284.507812 343.523438 281.929688 345.070312 C 279.351562 346.617188 276.734375 348.097656 274.082031 349.515625 C 271.429688 350.933594 268.746094 352.285156 266.027344 353.570312 C 263.308594 354.855469 260.558594 356.074219 257.78125 357.226562 C 255.003906 358.375 252.199219 359.457031 249.367188 360.472656 C 246.535156 361.484375 243.679688 362.425781 240.800781 363.300781 C 237.925781 364.171875 235.027344 364.976562 232.109375 365.707031 C 229.191406 366.4375 226.261719 367.09375 223.3125 367.683594 C 220.359375 368.269531 217.398438 368.78125 214.425781 369.222656 C 211.449219 369.664062 208.464844 370.035156 205.472656 370.328125 C 202.480469 370.621094 199.484375 370.84375 196.480469 370.992188 C 193.476562 371.140625 190.46875 371.210938 187.460938 371.210938 C 184.457031 371.210938 181.449219 371.140625 178.445312 370.992188 C 175.441406 370.84375 172.445312 370.621094 169.453125 370.328125 C 166.460938 370.035156 163.476562 369.664062 160.5 369.222656 C 157.527344 368.78125 154.5625 368.269531 151.613281 367.683594 C 148.664062 367.09375 145.730469 366.4375 142.816406 365.707031 C 139.898438 364.976562 137 364.171875 134.121094 363.300781 C 131.246094 362.425781 128.390625 361.484375 125.558594 360.472656 C 122.726562 359.457031 119.921875 358.375 117.144531 357.226562 C 114.367188 356.074219 111.617188 354.855469 108.898438 353.570312 C 106.179688 352.285156 103.496094 350.933594 100.84375 349.515625 C 98.191406 348.097656 95.574219 346.617188 92.996094 345.070312 C 90.417969 343.523438 87.878906 341.917969 85.375 340.246094 C 82.875 338.574219 80.417969 336.84375 78.003906 335.050781 C 75.585938 333.261719 73.21875 331.410156 70.894531 329.503906 C 68.570312 327.597656 66.292969 325.632812 64.0625 323.613281 C 61.835938 321.59375 59.660156 319.519531 57.53125 317.394531 C 55.40625 315.265625 53.332031 313.089844 51.3125 310.863281 C 49.292969 308.632812 47.328125 306.355469 45.421875 304.03125 C 43.515625 301.707031 41.664062 299.339844 39.875 296.921875 C 38.082031 294.507812 36.351562 292.050781 34.679688 289.550781 C 33.007812 287.046875 31.402344 284.507812 29.855469 281.929688 C 28.308594 279.351562 26.828125 276.734375 25.410156 274.082031 C 23.992188 271.429688 22.640625 268.746094 21.355469 266.027344 C 20.070312 263.308594 18.851562 260.558594 17.699219 257.78125 C 16.550781 255.003906 15.46875 252.199219 14.453125 249.367188 C 13.441406 246.535156 12.496094 243.679688 11.625 240.800781 C 10.753906 237.925781 9.949219 235.027344 9.21875 232.109375 C 8.488281 229.191406 7.832031 226.261719 7.242188 223.3125 C 6.65625 220.359375 6.144531 217.398438 5.703125 214.425781 C 5.261719 211.449219 4.890625 208.464844 4.597656 205.472656 C 4.304688 202.480469 4.082031 199.484375 3.933594 196.480469 C 3.785156 193.476562 3.710938 190.46875 3.710938 187.460938 C 3.710938 184.457031 3.785156 181.449219 3.933594 178.445312 C 4.082031 175.441406 4.304688 172.445312 4.597656 169.453125 C 4.890625 166.460938 5.261719 163.476562 5.703125 160.5 C 6.144531 157.527344 6.65625 154.5625 7.242188 151.613281 C 7.832031 148.664062 8.488281 145.730469 9.21875 142.816406 C 9.949219 139.898438 10.753906 137 11.625 134.121094 C 12.496094 131.246094 13.441406 128.390625 14.453125 125.558594 C 15.46875 122.726562 16.550781 119.921875 17.699219 117.144531 C 18.851562 114.367188 20.070312 111.617188 21.355469 108.898438 C 22.640625 106.179688 23.992188 103.496094 25.410156 100.84375 C 26.828125 98.191406 28.308594 95.574219 29.855469 92.996094 C 31.402344 90.417969 33.007812 87.878906 34.679688 85.375 C 36.351562 82.875 38.082031 80.417969 39.875 78.003906 C 41.664062 75.585938 43.515625 73.21875 45.421875 70.894531 C 47.328125 68.570312 49.292969 66.292969 51.3125 64.0625 C 53.332031 61.835938 55.40625 59.660156 57.53125 57.53125 C 59.660156 55.40625 61.835938 53.332031 64.0625 51.3125 C 66.292969 49.292969 68.570312 47.328125 70.894531 45.421875 C 73.21875 43.515625 75.585938 41.664062 78.003906 39.875 C 80.417969 38.082031 82.875 36.351562 85.375 34.679688 C 87.878906 33.007812 90.417969 31.402344 92.996094 29.855469 C 95.574219 28.308594 98.191406 26.828125 100.84375 25.410156 C 103.496094 23.992188 106.179688 22.640625 108.898438 21.355469 C 111.617188 20.070312 114.367188 18.851562 117.144531 17.699219 C 119.921875 16.550781 122.726562 15.46875 125.558594 14.453125 C 128.390625 13.441406 131.246094 12.496094 134.121094 11.625 C 137 10.753906 139.898438 9.949219 142.816406 9.21875 C 145.730469 8.488281 148.664062 7.832031 151.613281 7.242188 C 154.5625 6.65625 157.527344 6.144531 160.5 5.703125 C 163.476562 5.261719 166.460938 4.890625 169.453125 4.597656 C 172.445312 4.304688 175.441406 4.082031 178.445312 3.933594 C 181.449219 3.785156 184.457031 3.710938 187.460938 3.710938 C 190.46875 3.710938 193.476562 3.785156 196.480469 3.933594 C 199.484375 4.082031 202.480469 4.304688 205.472656 4.597656 C 208.464844 4.890625 211.449219 5.261719 214.425781 5.703125 C 217.398438 6.144531 220.359375 6.65625 223.3125 7.242188 C 226.261719 7.832031 229.191406 8.488281 232.109375 9.21875 C 235.027344 9.949219 237.925781 10.753906 240.800781 11.625 C 243.679688 12.496094 246.535156 13.441406 249.367188 14.453125 C 252.199219 15.46875 255.003906 16.550781 257.78125 17.699219 C 260.558594 18.851562 263.308594 20.070312 266.027344 21.355469 C 268.746094 22.640625 271.429688 23.992188 274.082031 25.410156 C 276.734375 26.828125 279.351562 28.308594 281.929688 29.855469 C 284.507812 31.402344 287.046875 33.007812 289.550781 34.679688 C 292.050781 36.351562 294.507812 38.082031 296.921875 39.875 C 299.339844 41.664062 301.707031 43.515625 304.03125 45.421875 C 306.355469 47.328125 308.632812 49.292969 310.863281 51.3125 C 313.089844 53.332031 315.265625 55.40625 317.394531 57.53125 C 319.519531 59.660156 321.59375 61.835938 323.613281 64.0625 C 325.632812 66.292969 327.597656 68.570312 329.503906 70.894531 C 331.410156 73.21875 333.261719 75.585938 335.050781 78.003906 C 336.84375 80.417969 338.574219 82.875 340.246094 85.375 C 341.917969 87.878906 343.523438 90.417969 345.070312 92.996094 C 346.617188 95.574219 348.097656 98.191406 349.515625 100.84375 C 350.933594 103.496094 352.285156 106.179688 353.570312 108.898438 C 354.855469 111.617188 356.074219 114.367188 357.226562 117.144531 C 358.375 119.921875 359.457031 122.726562 360.472656 125.558594 C 361.484375 128.390625 362.425781 131.246094 363.300781 134.121094 C 364.171875 137 364.976562 139.898438 365.707031 142.816406 C 366.4375 145.730469 367.09375 148.664062 367.683594 151.613281 C 368.269531 154.5625 368.78125 157.527344 369.222656 160.5 C 369.664062 163.476562 370.035156 166.460938 370.328125 169.453125 C 370.621094 172.445312 370.84375 175.441406 370.992188 178.445312 C 371.140625 181.449219 371.210938 184.457031 371.210938 187.460938 Z M 371.210938 187.460938 " fill-opacity="1" fill-rule="nonzero"/></g><g clip-path="url(#ab0bda29aa)"><path fill="#ffffff" d="M 192.398438 212.457031 C 164.832031 206.316406 140.699219 213.824219 114.027344 219.617188 C 87.769531 225.308594 62.132812 222.03125 37.5 211.332031 C 65.066406 217.484375 89.199219 209.964844 115.871094 204.175781 C 142.128906 198.480469 167.765625 201.761719 192.398438 212.457031 " fill-opacity="1" fill-rule="nonzero"/></g><path fill="#ffffff" d="M 75.636719 197.453125 C 100.414062 169.796875 140.011719 153.078125 176.070312 165.609375 C 193.585938 171.699219 209.96875 181.585938 228.453125 184.613281 C 248.464844 187.890625 266.820312 180.527344 283.617188 170.210938 L 284.433594 171.195312 C 272.511719 184.492188 256.773438 194.546875 238.796875 196.6875 C 219.113281 199.027344 200.441406 191.726562 182.378906 184.910156 C 166.140625 178.769531 151.480469 174.933594 134.019531 178.167969 C 113.960938 181.871094 94.964844 190.273438 76.414062 198.480469 L 75.636719 197.453125 " fill-opacity="1" fill-rule="nonzero"/><path fill="#ffffff" d="M 108.042969 197.007812 C 124.796875 184.242188 152.242188 187.203125 171.089844 190.964844 C 184.703125 193.683594 197.445312 198.644531 210.699219 202.601562 C 231.101562 208.675781 254.230469 207.617188 273.21875 197.433594 C 282.027344 192.710938 289.625 185.902344 293.382812 176.417969 C 299.050781 162.136719 294.800781 147.164062 292.238281 132.75 L 293.285156 132.019531 C 311.402344 143.535156 321.082031 166.8125 314.433594 187.585938 C 306.921875 211.082031 282.734375 223.78125 259.332031 224.785156 C 224.539062 226.292969 197.257812 205.125 165.179688 196.207031 C 148.601562 191.597656 124.46875 187.640625 108.851562 198.011719 L 108.042969 197.007812 " fill-opacity="1" fill-rule="nonzero"/></svg>