<svg viewBox="0 0 64 64" fill="none"
    xmlns="http://www.w3.org/2000/svg">
    <path d="M32 12.75C23.4668 12.75 18.1332 17.0168 16 25.55C19.2 21.2833 22.9333 19.6832 27.2 20.75C29.6343 21.3585 31.3743 23.1248 33.3003 25.0795C36.4378 28.2643 40.0687 31.95 48 31.95C56.5332 31.95 61.8668 27.6832 64 19.15C60.8 23.4167 57.0667 25.0167 52.8 23.95C50.3657 23.3415 48.6257 21.5753 46.6997 19.6205C43.5622 16.4358 39.9313 12.75 32 12.75ZM16 31.95C7.46675 31.95 2.13325 36.2168 0 44.75C3.2 40.4833 6.93325 38.8833 11.2 39.95C13.6342 40.5585 15.3742 42.3247 17.3002 44.2795C20.4377 47.4642 24.0687 51.15 32 51.15C40.5332 51.15 45.8668 46.8833 48 38.35C44.8 42.6168 41.0667 44.2167 36.8 43.15C34.3657 42.5415 32.6258 40.7752 30.6998 38.8205C27.5623 35.6357 23.9313 31.95 16 31.95Z" fill="#38BDF9"/>
</svg>
