<svg width="480" height="480" viewBox="0 0 480 480" fill="none" xmlns="http://www.w3.org/2000/svg">
<rect width="480" height="480" rx="148" fill="url(#paint0_linear_441_1141)"/>
<g filter="url(#filter0_d_441_1141)">
<path opacity="0.99" fill-rule="evenodd" clip-rule="evenodd" d="M264.967 104C303.878 104 342.79 104 381.701 104C390.265 106.634 393.625 112.858 391.781 122.672C390.163 127.455 387.137 130.474 382.696 131.73C342.215 132.013 301.727 132.292 261.234 132.566C222.304 136.409 189.74 154.384 163.541 186.492C154.59 197.978 147.123 210.612 141.14 224.393C133.009 243.53 124.879 262.667 116.748 281.803C110.38 299.775 112.537 316.31 123.219 331.41C130.249 340.432 139.085 345.774 149.727 347.434C162.955 347.754 176.188 347.893 189.426 347.852C202.995 347.891 216.56 347.752 230.121 347.434C257.734 343.854 279.098 329.13 294.213 303.262C296.145 299.773 297.887 296.15 299.44 292.393C302.206 284.957 305.068 277.572 308.027 270.238C300.552 273.09 293.085 276.063 285.626 279.156C278.527 280.732 273.424 277.898 270.318 270.656C268.29 262.694 270.489 256.702 276.914 252.68C294.053 245.602 311.227 238.635 328.436 231.779C334.225 230.724 338.748 232.907 342.001 238.328C348.721 258.204 355.193 278.177 361.415 298.246C361.94 306.691 358.58 312.032 351.335 314.27C345.098 315.122 340.493 312.474 337.521 306.328C335.127 298.844 332.638 291.412 330.054 284.033C327.282 291.395 324.461 298.733 321.592 306.049C307.27 338.339 284.745 359.937 254.015 370.844C245.36 373.682 236.565 375.401 227.632 376C202.079 376 176.525 376 150.971 376C127.024 373.538 108.895 360.811 96.587 337.82C91.7308 327.966 88.8684 317.469 88 306.328C88 302.705 88 299.082 88 295.459C88.6693 287.629 90.2872 280.011 92.8535 272.607C102.523 249.374 112.396 226.243 122.472 203.213C144.67 158.949 177.317 128.805 220.414 112.779C234.968 107.741 249.819 104.814 264.967 104Z" fill="url(#paint1_linear_441_1141)"/>
<path opacity="0.99" fill-rule="evenodd" clip-rule="evenodd" d="M264.779 97H382.753L383.758 97.3092C389.305 99.015 394.034 102.187 396.804 107.318C399.506 112.323 399.759 118.119 398.661 123.965L398.57 124.449L398.412 124.915C396.138 131.639 391.497 136.516 384.6 138.466L383.691 138.723L382.745 138.729C342.372 139.013 301.991 139.291 261.605 139.563C224.812 143.274 194.032 160.223 169.014 190.856C160.464 201.839 153.315 213.933 147.572 227.156C147.568 227.165 147.564 227.173 147.561 227.181L123.276 284.338C117.745 300.11 119.639 314.151 128.84 327.234C134.731 334.742 141.847 339.014 150.373 340.448C163.378 340.758 176.389 340.893 189.405 340.852L189.425 340.852L189.446 340.852C202.828 340.89 216.207 340.755 229.581 340.445C254.663 337.09 274.081 323.801 288.128 299.801C289.894 296.604 291.493 293.282 292.923 289.833C293.82 287.423 294.727 285.019 295.644 282.62C293.198 283.607 290.752 284.608 288.307 285.622L287.741 285.857L287.143 285.989C282.349 287.053 277.466 286.77 273.076 284.332C268.763 281.937 265.837 277.966 263.885 273.415L263.67 272.913L263.535 272.384C262.272 267.425 262.166 262.436 263.875 257.779C265.605 253.065 268.927 249.422 273.2 246.747L273.699 246.435L274.242 246.21C291.408 239.121 308.609 232.143 325.845 225.276L326.495 225.017L327.182 224.892C331.276 224.146 335.398 224.48 339.213 226.321C342.985 228.142 345.856 231.148 348.003 234.726L348.391 235.372L348.632 236.086C355.372 256.019 361.861 276.048 368.101 296.173L368.35 296.974L368.402 297.811C368.725 303.006 367.902 308.04 365.214 312.313C362.472 316.673 358.285 319.45 353.401 320.959L352.851 321.128L352.281 321.206C347.923 321.801 343.595 321.223 339.714 318.992C335.886 316.791 333.144 313.355 331.219 309.375L331.004 308.931L330.854 308.46C330.451 307.202 330.046 305.945 329.638 304.69C329.13 305.996 328.62 307.301 328.108 308.605L328.052 308.747L327.99 308.887C312.962 342.771 289.059 365.834 256.357 377.441L256.277 377.469L256.197 377.496C246.996 380.513 237.626 382.345 228.101 382.984L227.867 383H150.613L150.256 382.963C123.775 380.241 103.714 365.964 90.4157 341.123L90.3602 341.02L90.3082 340.914C85.0517 330.249 81.9575 318.884 81.0212 306.872L81 306.6V295.16L81.0254 294.863C81.744 286.456 83.4826 278.269 86.2395 270.314L86.3092 270.113L86.3909 269.917C96.0764 246.645 105.966 223.475 116.06 200.407L116.133 200.239L116.215 200.075C139.139 154.362 173.083 122.911 217.974 106.218L218.049 106.19L218.124 106.164C233.286 100.915 248.781 97.8601 264.591 97.0101L264.779 97ZM326.171 294.247C327.476 290.847 328.77 287.442 330.054 284.033C331.26 287.476 332.445 290.93 333.609 294.396C334.94 298.359 336.244 302.336 337.521 306.328C340.493 312.474 345.098 315.122 351.335 314.27C358.58 312.032 361.94 306.691 361.415 298.246C355.193 278.177 348.721 258.204 342.001 238.328C338.748 232.907 334.225 230.724 328.436 231.779C311.227 238.635 294.053 245.602 276.914 252.68C270.489 256.702 268.29 262.694 270.318 270.656C273.424 277.898 278.527 280.732 285.626 279.156C290.117 277.293 294.612 275.474 299.109 273.699C302.08 272.526 305.053 271.372 308.027 270.238C306.838 273.183 305.666 276.137 304.509 279.099C302.785 283.512 301.095 287.944 299.44 292.393C297.887 296.15 296.145 299.773 294.213 303.262C279.098 329.13 257.734 343.854 230.121 347.434C216.56 347.752 202.995 347.891 189.426 347.852C176.188 347.893 162.955 347.754 149.727 347.434C139.085 345.774 130.249 340.432 123.219 331.41C112.537 316.31 110.38 299.775 116.748 281.803L141.14 224.393C147.123 210.612 154.59 197.978 163.541 186.492C189.74 154.384 222.304 136.409 261.234 132.566C301.727 132.292 342.215 132.013 382.696 131.73C387.137 130.474 390.163 127.455 391.781 122.672C393.625 112.858 390.265 106.634 381.701 104H264.967C249.819 104.814 234.968 107.741 220.414 112.779C177.317 128.805 144.67 158.949 122.472 203.213C112.396 226.243 102.523 249.374 92.8535 272.607C90.2872 280.011 88.6693 287.629 88 295.459V306.328C88.8684 317.469 91.7308 327.966 96.587 337.82C108.895 360.811 127.024 373.538 150.971 376H227.632C236.565 375.401 245.36 373.682 254.015 370.844C284.745 359.937 307.27 338.339 321.592 306.049C323.132 302.122 324.658 298.188 326.171 294.247Z" fill="url(#paint2_linear_441_1141)"/>
</g>
<defs>
<filter id="filter0_d_441_1141" x="77" y="97" width="326.271" height="294" filterUnits="userSpaceOnUse" color-interpolation-filters="sRGB">
<feFlood flood-opacity="0" result="BackgroundImageFix"/>
<feColorMatrix in="SourceAlpha" type="matrix" values="0 0 0 0 0 0 0 0 0 0 0 0 0 0 0 0 0 0 127 0" result="hardAlpha"/>
<feOffset dy="4"/>
<feGaussianBlur stdDeviation="2"/>
<feComposite in2="hardAlpha" operator="out"/>
<feColorMatrix type="matrix" values="0 0 0 0 0 0 0 0 0 0 0 0 0 0 0 0 0 0 0.25 0"/>
<feBlend mode="normal" in2="BackgroundImageFix" result="effect1_dropShadow_441_1141"/>
<feBlend mode="normal" in="SourceGraphic" in2="effect1_dropShadow_441_1141" result="shape"/>
</filter>
<linearGradient id="paint0_linear_441_1141" x1="240" y1="0" x2="240" y2="480" gradientUnits="userSpaceOnUse">
<stop stop-color="#C12A53"/>
<stop offset="1" stop-color="#EF3C6C"/>
</linearGradient>
<linearGradient id="paint1_linear_441_1141" x1="413.045" y1="43.1329" x2="51.6113" y2="398.805" gradientUnits="userSpaceOnUse">
<stop stop-color="#FFF7F9"/>
<stop offset="1" stop-color="white"/>
</linearGradient>
<linearGradient id="paint2_linear_441_1141" x1="421" y1="33" x2="41" y2="405" gradientUnits="userSpaceOnUse">
<stop stop-color="#FFF7F9"/>
<stop offset="1" stop-color="white"/>
</linearGradient>
</defs>
</svg>
