<svg xmlns="http://www.w3.org/2000/svg" xmlns:xlink="http://www.w3.org/1999/xlink" width="1200" zoomAndPan="magnify" viewBox="0 0 900 374.999991" height="500" preserveAspectRatio="xMidYMid meet" version="1.0"><defs><clipPath id="66a837ee2a"><path d="M 80.339844 245 L 485 245 L 485 301 L 80.339844 301 Z M 80.339844 245 " clip-rule="nonzero"/></clipPath><clipPath id="f7ff0064f0"><path d="M 264 64.585938 L 809 64.585938 L 809 307 L 264 307 Z M 264 64.585938 " clip-rule="nonzero"/></clipPath></defs><g clip-path="url(#66a837ee2a)"><path fill="#2ea5e4" d="M 484.382812 274.316406 C 412.480469 258.328125 349.53125 277.871094 279.957031 292.949219 C 211.464844 307.765625 144.59375 299.234375 80.339844 271.386719 C 152.242188 287.402344 215.191406 267.832031 284.761719 252.753906 C 353.253906 237.933594 420.125 246.46875 484.382812 274.316406 " fill-opacity="1" fill-rule="nonzero"/></g><path fill="#8fd8ff" d="M 179.820312 235.261719 C 244.445312 163.265625 347.738281 119.746094 441.792969 152.371094 C 487.480469 168.214844 530.214844 193.960938 578.433594 201.839844 C 630.636719 210.371094 678.515625 191.199219 722.328125 164.347656 L 724.460938 166.90625 C 693.355469 201.527344 652.300781 227.695312 605.417969 233.269531 C 554.070312 239.355469 505.367188 220.355469 458.253906 202.605469 C 415.890625 186.621094 377.648438 176.636719 332.101562 185.054688 C 279.789062 194.699219 230.230469 216.574219 181.839844 237.933594 L 179.820312 235.261719 " fill-opacity="1" fill-rule="nonzero"/><g clip-path="url(#f7ff0064f0)"><path fill="#8fd8ff" d="M 264.347656 234.09375 C 308.046875 200.871094 379.640625 208.578125 428.796875 218.363281 C 464.308594 225.449219 497.546875 238.363281 532.121094 248.660156 C 585.34375 264.472656 645.675781 261.714844 695.203125 235.203125 C 718.175781 222.917969 737.996094 205.195312 747.804688 180.503906 C 762.589844 143.328125 751.5 104.359375 744.816406 66.839844 L 747.546875 64.933594 C 794.800781 94.914062 820.046875 155.5 802.707031 209.574219 C 783.117188 270.730469 720.027344 303.785156 658.984375 306.402344 C 568.226562 310.328125 497.0625 255.230469 413.386719 232.019531 C 370.144531 220.015625 307.195312 209.71875 266.453125 236.710938 L 264.347656 234.09375 " fill-opacity="1" fill-rule="nonzero"/></g></svg>