<svg xmlns="http://www.w3.org/2000/svg" xmlns:xlink="http://www.w3.org/1999/xlink" width="1200" zoomAndPan="magnify" viewBox="0 0 900 374.999991" height="500" preserveAspectRatio="xMidYMid meet" version="1.0"><defs><g/><clipPath id="1916820f19"><path d="M 571.703125 97 L 728 97 L 728 120 L 571.703125 120 Z M 571.703125 97 " clip-rule="nonzero"/></clipPath></defs><g clip-path="url(#1916820f19)"><path fill="#2ea5e4" d="M 727.570312 109.03125 C 699.832031 102.851562 675.550781 110.40625 648.710938 116.230469 C 622.289062 121.960938 596.492188 118.664062 571.703125 107.898438 C 599.441406 114.089844 623.726562 106.523438 650.5625 100.695312 C 676.988281 94.964844 702.785156 98.265625 727.570312 109.03125 " fill-opacity="1" fill-rule="nonzero"/></g><path fill="#8fd8ff" d="M 610.082031 93.933594 C 635.011719 66.101562 674.859375 49.277344 711.140625 61.890625 C 728.765625 68.015625 745.253906 77.964844 763.855469 81.011719 C 783.992188 84.3125 802.460938 76.898438 819.363281 66.519531 L 820.1875 67.507812 C 808.1875 80.890625 792.351562 91.007812 774.261719 93.164062 C 754.453125 95.515625 735.667969 88.171875 717.492188 81.308594 C 701.148438 75.128906 686.398438 71.269531 668.828125 74.523438 C 648.644531 78.25 629.527344 86.707031 610.859375 94.964844 L 610.082031 93.933594 " fill-opacity="1" fill-rule="nonzero"/><path fill="#8fd8ff" d="M 642.6875 93.480469 C 659.546875 80.636719 687.164062 83.617188 706.128906 87.402344 C 719.828125 90.136719 732.648438 95.128906 745.988281 99.113281 C 766.519531 105.226562 789.792969 104.160156 808.902344 93.910156 C 817.761719 89.160156 825.40625 82.308594 829.191406 72.765625 C 834.894531 58.394531 830.617188 43.328125 828.039062 28.824219 L 829.09375 28.085938 C 847.324219 39.675781 857.0625 63.097656 850.371094 84.003906 C 842.8125 107.644531 818.476562 120.421875 794.925781 121.433594 C 759.917969 122.949219 732.464844 101.652344 700.183594 92.679688 C 683.5 88.039062 659.21875 84.058594 643.5 94.492188 L 642.6875 93.480469 " fill-opacity="1" fill-rule="nonzero"/><g fill="#ffffff" fill-opacity="1"><g transform="translate(50.530811, 284.244663)"><g><path d="M 6.90625 -87.0625 C 6.039062 -88.4375 5.234375 -90.304688 4.484375 -92.671875 C 3.734375 -95.035156 3.359375 -97.523438 3.359375 -100.140625 C 3.359375 -105.003906 4.445312 -108.492188 6.625 -110.609375 C 8.8125 -112.722656 11.648438 -113.78125 15.140625 -113.78125 L 96.59375 -113.78125 C 97.46875 -112.414062 98.273438 -110.546875 99.015625 -108.171875 C 99.765625 -105.804688 100.140625 -103.316406 100.140625 -100.703125 C 100.140625 -95.847656 99.050781 -92.359375 96.875 -90.234375 C 94.695312 -88.117188 91.863281 -87.0625 88.375 -87.0625 L 67.640625 -87.0625 L 67.640625 -0.75 C 66.265625 -0.375 64.113281 0 61.1875 0.375 C 58.257812 0.75 55.363281 0.9375 52.5 0.9375 C 49.632812 0.9375 47.113281 0.71875 44.9375 0.28125 C 42.757812 -0.15625 40.921875 -0.929688 39.421875 -2.046875 C 37.929688 -3.171875 36.8125 -4.726562 36.0625 -6.71875 C 35.3125 -8.71875 34.9375 -11.335938 34.9375 -14.578125 L 34.9375 -87.0625 Z M 6.90625 -87.0625 "/></g></g></g><g fill="#ffffff" fill-opacity="1"><g transform="translate(154.416766, 284.244663)"><g><path d="M 64.46875 -85.578125 C 65.832031 -86.203125 67.976562 -86.914062 70.90625 -87.71875 C 73.832031 -88.53125 76.789062 -88.9375 79.78125 -88.9375 C 85.007812 -88.9375 89.367188 -88.15625 92.859375 -86.59375 C 96.347656 -85.039062 98.46875 -82.769531 99.21875 -79.78125 C 100.582031 -74.675781 101.851562 -69.910156 103.03125 -65.484375 C 104.21875 -61.066406 105.375 -56.832031 106.5 -52.78125 C 107.625 -48.726562 108.710938 -44.707031 109.765625 -40.71875 C 110.828125 -36.738281 111.859375 -32.570312 112.859375 -28.21875 L 113.78125 -28.21875 C 114.90625 -35.8125 115.898438 -43.0625 116.765625 -49.96875 C 117.640625 -56.882812 118.453125 -63.675781 119.203125 -70.34375 C 119.953125 -77.007812 120.695312 -83.613281 121.4375 -90.15625 C 122.1875 -96.695312 122.9375 -103.328125 123.6875 -110.046875 C 128.300781 -112.660156 133.222656 -113.96875 138.453125 -113.96875 C 143.054688 -113.96875 147.039062 -112.972656 150.40625 -110.984375 C 153.769531 -108.992188 155.453125 -105.628906 155.453125 -100.890625 C 155.453125 -98.148438 155.171875 -94.257812 154.609375 -89.21875 C 154.046875 -84.175781 153.296875 -78.539062 152.359375 -72.3125 C 151.429688 -66.082031 150.34375 -59.539062 149.09375 -52.6875 C 147.851562 -45.832031 146.546875 -39.289062 145.171875 -33.0625 C 143.804688 -26.84375 142.40625 -21.207031 140.96875 -16.15625 C 139.539062 -11.113281 138.203125 -7.222656 136.953125 -4.484375 C 135.085938 -2.742188 132.035156 -1.3125 127.796875 -0.1875 C 123.566406 0.9375 119.207031 1.5 114.71875 1.5 C 108.863281 1.5 103.910156 0.722656 99.859375 -0.828125 C 95.816406 -2.390625 93.359375 -4.601562 92.484375 -7.46875 C 90.867188 -12.457031 89.125 -18.375 87.25 -25.21875 C 85.382812 -32.070312 83.394531 -39.609375 81.28125 -47.828125 C 79.53125 -39.734375 77.722656 -31.820312 75.859375 -24.09375 C 73.992188 -16.375 72.3125 -9.835938 70.8125 -4.484375 C 68.945312 -2.742188 66.144531 -1.3125 62.40625 -0.1875 C 58.664062 0.9375 54.554688 1.5 50.078125 1.5 C 44.472656 1.5 39.394531 0.722656 34.84375 -0.828125 C 30.300781 -2.390625 27.34375 -4.601562 25.96875 -7.46875 C 24.851562 -9.71875 23.640625 -13.050781 22.328125 -17.46875 C 21.015625 -21.894531 19.671875 -26.941406 18.296875 -32.609375 C 16.929688 -38.273438 15.53125 -44.40625 14.09375 -51 C 12.664062 -57.601562 11.359375 -64.207031 10.171875 -70.8125 C 8.992188 -77.414062 7.90625 -83.863281 6.90625 -90.15625 C 5.914062 -96.445312 5.171875 -102.207031 4.671875 -107.4375 C 6.410156 -109.050781 8.835938 -110.539062 11.953125 -111.90625 C 15.066406 -113.28125 18.429688 -113.96875 22.046875 -113.96875 C 26.773438 -113.96875 30.664062 -112.941406 33.71875 -110.890625 C 36.769531 -108.835938 38.671875 -105.378906 39.421875 -100.515625 C 41.410156 -87.816406 43.0625 -77.226562 44.375 -68.75 C 45.6875 -60.28125 46.742188 -53.335938 47.546875 -47.921875 C 48.359375 -42.503906 48.953125 -38.300781 49.328125 -35.3125 C 49.703125 -32.320312 50.078125 -29.957031 50.453125 -28.21875 L 51.375 -28.21875 C 52.5 -33.195312 53.554688 -37.800781 54.546875 -42.03125 C 55.546875 -46.269531 56.578125 -50.535156 57.640625 -54.828125 C 58.703125 -59.128906 59.789062 -63.738281 60.90625 -68.65625 C 62.03125 -73.582031 63.21875 -79.222656 64.46875 -85.578125 Z M 64.46875 -85.578125 "/></g></g></g><g fill="#ffffff" fill-opacity="1"><g transform="translate(315.664198, 284.244663)"><g><path d="M 44.84375 -0.75 C 43.46875 -0.375 41.316406 0 38.390625 0.375 C 35.460938 0.75 32.566406 0.9375 29.703125 0.9375 C 26.835938 0.9375 24.316406 0.71875 22.140625 0.28125 C 19.960938 -0.15625 18.125 -0.929688 16.625 -2.046875 C 15.132812 -3.171875 14.015625 -4.726562 13.265625 -6.71875 C 12.515625 -8.71875 12.140625 -11.335938 12.140625 -14.578125 L 12.140625 -113.234375 C 13.515625 -113.472656 15.695312 -113.8125 18.6875 -114.25 C 21.675781 -114.6875 24.539062 -114.90625 27.28125 -114.90625 C 30.144531 -114.90625 32.664062 -114.6875 34.84375 -114.25 C 37.019531 -113.8125 38.851562 -113.03125 40.34375 -111.90625 C 41.84375 -110.789062 42.96875 -109.238281 43.71875 -107.25 C 44.46875 -105.257812 44.84375 -102.644531 44.84375 -99.40625 Z M 44.84375 -0.75 "/></g></g></g><g fill="#ffffff" fill-opacity="1"><g transform="translate(372.652002, 284.244663)"><g><path d="M 44.28125 -45.03125 C 38.800781 -46.894531 33.816406 -48.789062 29.328125 -50.71875 C 24.847656 -52.65625 20.988281 -54.992188 17.75 -57.734375 C 14.507812 -60.472656 11.984375 -63.742188 10.171875 -67.546875 C 8.367188 -71.347656 7.46875 -75.988281 7.46875 -81.46875 C 7.46875 -92.050781 11.546875 -100.519531 19.703125 -106.875 C 27.867188 -113.226562 39.300781 -116.40625 54 -116.40625 C 59.351562 -116.40625 64.332031 -116.03125 68.9375 -115.28125 C 73.550781 -114.53125 77.507812 -113.375 80.8125 -111.8125 C 84.113281 -110.257812 86.695312 -108.269531 88.5625 -105.84375 C 90.425781 -103.414062 91.359375 -100.582031 91.359375 -97.34375 C 91.359375 -94.101562 90.609375 -91.332031 89.109375 -89.03125 C 87.617188 -86.726562 85.816406 -84.765625 83.703125 -83.140625 C 80.960938 -84.890625 77.285156 -86.414062 72.671875 -87.71875 C 68.066406 -89.03125 63.023438 -89.6875 57.546875 -89.6875 C 51.941406 -89.6875 47.832031 -88.90625 45.21875 -87.34375 C 42.601562 -85.789062 41.296875 -83.832031 41.296875 -81.46875 C 41.296875 -79.59375 42.101562 -78.0625 43.71875 -76.875 C 45.34375 -75.695312 47.773438 -74.609375 51.015625 -73.609375 L 60.90625 -70.4375 C 72.613281 -66.695312 81.613281 -61.929688 87.90625 -56.140625 C 94.195312 -50.347656 97.34375 -42.472656 97.34375 -32.515625 C 97.34375 -21.921875 93.171875 -13.351562 84.828125 -6.8125 C 76.484375 -0.28125 64.210938 2.984375 48.015625 2.984375 C 42.285156 2.984375 36.957031 2.515625 32.03125 1.578125 C 27.113281 0.648438 22.816406 -0.710938 19.140625 -2.515625 C 15.472656 -4.328125 12.609375 -6.570312 10.546875 -9.25 C 8.492188 -11.925781 7.46875 -15.007812 7.46875 -18.5 C 7.46875 -22.113281 8.523438 -25.195312 10.640625 -27.75 C 12.765625 -30.300781 15.070312 -32.257812 17.5625 -33.625 C 21.050781 -30.882812 25.316406 -28.519531 30.359375 -26.53125 C 35.398438 -24.539062 40.910156 -23.546875 46.890625 -23.546875 C 52.992188 -23.546875 57.289062 -24.476562 59.78125 -26.34375 C 62.28125 -28.207031 63.53125 -30.390625 63.53125 -32.890625 C 63.53125 -35.378906 62.53125 -37.273438 60.53125 -38.578125 C 58.539062 -39.890625 55.738281 -41.164062 52.125 -42.40625 Z M 44.28125 -45.03125 "/></g></g></g><g fill="#8fd8ff" fill-opacity="1"><g transform="translate(475.596464, 284.244663)"><g><path d="M 6.90625 -87.0625 C 6.039062 -88.4375 5.234375 -90.304688 4.484375 -92.671875 C 3.734375 -95.035156 3.359375 -97.523438 3.359375 -100.140625 C 3.359375 -105.003906 4.445312 -108.492188 6.625 -110.609375 C 8.8125 -112.722656 11.648438 -113.78125 15.140625 -113.78125 L 96.59375 -113.78125 C 97.46875 -112.414062 98.273438 -110.546875 99.015625 -108.171875 C 99.765625 -105.804688 100.140625 -103.316406 100.140625 -100.703125 C 100.140625 -95.847656 99.050781 -92.359375 96.875 -90.234375 C 94.695312 -88.117188 91.863281 -87.0625 88.375 -87.0625 L 67.640625 -87.0625 L 67.640625 -0.75 C 66.265625 -0.375 64.113281 0 61.1875 0.375 C 58.257812 0.75 55.363281 0.9375 52.5 0.9375 C 49.632812 0.9375 47.113281 0.71875 44.9375 0.28125 C 42.757812 -0.15625 40.921875 -0.929688 39.421875 -2.046875 C 37.929688 -3.171875 36.8125 -4.726562 36.0625 -6.71875 C 35.3125 -8.71875 34.9375 -11.335938 34.9375 -14.578125 L 34.9375 -87.0625 Z M 6.90625 -87.0625 "/></g></g></g><g fill="#8fd8ff" fill-opacity="1"><g transform="translate(579.482418, 284.244663)"><g><path d="M 36.25 -109.859375 C 38.363281 -111.109375 41.566406 -112.289062 45.859375 -113.40625 C 50.160156 -114.53125 54.492188 -115.09375 58.859375 -115.09375 C 65.085938 -115.09375 70.597656 -114.1875 75.390625 -112.375 C 80.179688 -110.570312 83.265625 -107.742188 84.640625 -103.890625 C 86.878906 -97.410156 89.304688 -89.875 91.921875 -81.28125 C 94.535156 -72.6875 97.148438 -63.8125 99.765625 -54.65625 C 102.390625 -45.5 104.945312 -36.46875 107.4375 -27.5625 C 109.925781 -18.65625 112.101562 -10.773438 113.96875 -3.921875 C 112.476562 -2.179688 110.238281 -0.78125 107.25 0.28125 C 104.257812 1.34375 100.707031 1.875 96.59375 1.875 C 93.601562 1.875 91.082031 1.625 89.03125 1.125 C 86.976562 0.625 85.296875 -0.117188 83.984375 -1.109375 C 82.679688 -2.109375 81.625 -3.414062 80.8125 -5.03125 C 80 -6.65625 79.28125 -8.53125 78.65625 -10.65625 L 75.296875 -23.546875 L 41.484375 -23.546875 C 40.484375 -19.804688 39.484375 -15.941406 38.484375 -11.953125 C 37.492188 -7.972656 36.5 -4.113281 35.5 -0.375 C 33.757812 0.25 31.921875 0.78125 29.984375 1.21875 C 28.054688 1.65625 25.722656 1.875 22.984375 1.875 C 16.628906 1.875 11.925781 0.785156 8.875 -1.390625 C 5.820312 -3.578125 4.296875 -6.601562 4.296875 -10.46875 C 4.296875 -12.207031 4.546875 -13.945312 5.046875 -15.6875 C 5.546875 -17.4375 6.101562 -19.492188 6.71875 -21.859375 C 7.59375 -25.222656 8.804688 -29.394531 10.359375 -34.375 C 11.921875 -39.363281 13.632812 -44.753906 15.5 -50.546875 C 17.375 -56.335938 19.367188 -62.285156 21.484375 -68.390625 C 23.597656 -74.492188 25.585938 -80.253906 27.453125 -85.671875 C 29.328125 -91.085938 31.039062 -95.910156 32.59375 -100.140625 C 34.15625 -104.378906 35.375 -107.617188 36.25 -109.859375 Z M 58.671875 -85.765625 C 56.921875 -80.523438 54.957031 -74.695312 52.78125 -68.28125 C 50.601562 -61.875 48.640625 -55.367188 46.890625 -48.765625 L 70.0625 -48.765625 C 68.320312 -55.492188 66.546875 -62.0625 64.734375 -68.46875 C 62.929688 -74.882812 61.285156 -80.648438 59.796875 -85.765625 Z M 58.671875 -85.765625 "/></g></g></g><g fill="#8fd8ff" fill-opacity="1"><g transform="translate(696.634375, 284.244663)"><g><path d="M 44.84375 -0.75 C 43.46875 -0.375 41.316406 0 38.390625 0.375 C 35.460938 0.75 32.566406 0.9375 29.703125 0.9375 C 26.835938 0.9375 24.316406 0.71875 22.140625 0.28125 C 19.960938 -0.15625 18.125 -0.929688 16.625 -2.046875 C 15.132812 -3.171875 14.015625 -4.726562 13.265625 -6.71875 C 12.515625 -8.71875 12.140625 -11.335938 12.140625 -14.578125 L 12.140625 -113.234375 C 13.515625 -113.472656 15.695312 -113.8125 18.6875 -114.25 C 21.675781 -114.6875 24.539062 -114.90625 27.28125 -114.90625 C 30.144531 -114.90625 32.664062 -114.6875 34.84375 -114.25 C 37.019531 -113.8125 38.851562 -113.03125 40.34375 -111.90625 C 41.84375 -110.789062 42.96875 -109.238281 43.71875 -107.25 C 44.46875 -105.257812 44.84375 -102.644531 44.84375 -99.40625 Z M 44.84375 -0.75 "/></g></g></g><g fill="#8fd8ff" fill-opacity="1"><g transform="translate(753.622179, 284.244663)"><g><path d="M 29.515625 0.5625 C 24.160156 0.5625 19.925781 -0.992188 16.8125 -4.109375 C 13.695312 -7.222656 12.140625 -11.457031 12.140625 -16.8125 L 12.140625 -113.421875 C 13.515625 -113.660156 15.695312 -114 18.6875 -114.4375 C 21.675781 -114.875 24.539062 -115.09375 27.28125 -115.09375 C 30.144531 -115.09375 32.664062 -114.875 34.84375 -114.4375 C 37.019531 -114 38.851562 -113.21875 40.34375 -112.09375 C 41.84375 -110.976562 42.96875 -109.425781 43.71875 -107.4375 C 44.46875 -105.445312 44.84375 -102.832031 44.84375 -99.59375 L 44.84375 -25.78125 L 87.625 -25.78125 C 88.5 -24.414062 89.3125 -22.578125 90.0625 -20.265625 C 90.8125 -17.960938 91.1875 -15.566406 91.1875 -13.078125 C 91.1875 -8.097656 90.125 -4.578125 88 -2.515625 C 85.882812 -0.460938 83.082031 0.5625 79.59375 0.5625 Z M 29.515625 0.5625 "/></g></g></g></svg>