<svg xmlns="http://www.w3.org/2000/svg" xmlns:xlink="http://www.w3.org/1999/xlink" width="1200" zoomAndPan="magnify" viewBox="0 0 900 374.999991" height="500" preserveAspectRatio="xMidYMid meet" version="1.0"><defs><g/><clipPath id="05dd7e77ba"><path d="M 571.859375 99 L 728 99 L 728 121 L 571.859375 121 Z M 571.859375 99 " clip-rule="nonzero"/></clipPath><clipPath id="3823990f8c"><path d="M 642 29.042969 L 854 29.042969 L 854 123 L 642 123 Z M 642 29.042969 " clip-rule="nonzero"/></clipPath></defs><g clip-path="url(#05dd7e77ba)"><path fill="#2ea5e4" d="M 727.929688 110.222656 C 700.15625 104.035156 675.839844 111.597656 648.964844 117.433594 C 622.511719 123.167969 596.679688 119.867188 571.859375 109.085938 C 599.632812 115.285156 623.949219 107.710938 650.820312 101.875 C 677.277344 96.140625 703.109375 99.441406 727.929688 110.222656 " fill-opacity="1" fill-rule="nonzero"/></g><path fill="#8fd8ff" d="M 610.285156 95.105469 C 635.25 67.238281 675.148438 50.390625 711.476562 63.019531 C 729.125 69.152344 745.632812 79.117188 764.257812 82.167969 C 784.421875 85.46875 802.914062 78.050781 819.839844 67.65625 L 820.664062 68.648438 C 808.648438 82.046875 792.789062 92.175781 774.679688 94.332031 C 754.847656 96.691406 736.035156 89.335938 717.835938 82.464844 C 701.472656 76.277344 686.703125 72.414062 669.109375 75.671875 C 648.898438 79.402344 629.757812 87.871094 611.066406 96.140625 L 610.285156 95.105469 " fill-opacity="1" fill-rule="nonzero"/><g clip-path="url(#3823990f8c)"><path fill="#8fd8ff" d="M 642.9375 94.652344 C 659.816406 81.792969 687.46875 84.777344 706.457031 88.5625 C 720.175781 91.304688 733.011719 96.304688 746.367188 100.289062 C 766.925781 106.410156 790.230469 105.34375 809.363281 95.082031 C 818.234375 90.324219 825.890625 83.464844 829.679688 73.910156 C 835.390625 59.519531 831.105469 44.433594 828.527344 29.914062 L 829.582031 29.175781 C 847.832031 40.78125 857.585938 64.230469 850.886719 85.164062 C 843.320312 108.835938 818.949219 121.628906 795.371094 122.640625 C 760.316406 124.160156 732.828125 102.832031 700.507812 93.847656 C 683.800781 89.203125 659.488281 85.21875 643.75 95.667969 L 642.9375 94.652344 " fill-opacity="1" fill-rule="nonzero"/></g><g fill="#020d1e" fill-opacity="1"><g transform="translate(50.06504, 284.221189)"><g><path d="M 6.921875 -87.171875 C 6.046875 -88.546875 5.234375 -90.414062 4.484375 -92.78125 C 3.742188 -95.15625 3.375 -97.65625 3.375 -100.28125 C 3.375 -105.132812 4.460938 -108.625 6.640625 -110.75 C 8.828125 -112.875 11.664062 -113.9375 15.15625 -113.9375 L 96.71875 -113.9375 C 97.59375 -112.5625 98.40625 -110.6875 99.15625 -108.3125 C 99.90625 -105.945312 100.28125 -103.453125 100.28125 -100.828125 C 100.28125 -95.972656 99.1875 -92.484375 97 -90.359375 C 94.8125 -88.234375 91.972656 -87.171875 88.484375 -87.171875 L 67.71875 -87.171875 L 67.71875 -0.75 C 66.351562 -0.375 64.203125 0 61.265625 0.375 C 58.335938 0.75 55.4375 0.9375 52.5625 0.9375 C 49.695312 0.9375 47.171875 0.71875 44.984375 0.28125 C 42.804688 -0.15625 40.96875 -0.929688 39.46875 -2.046875 C 37.976562 -3.171875 36.859375 -4.734375 36.109375 -6.734375 C 35.359375 -8.734375 34.984375 -11.351562 34.984375 -14.59375 L 34.984375 -87.171875 Z M 6.921875 -87.171875 "/></g></g></g><g fill="#020d1e" fill-opacity="1"><g transform="translate(154.064989, 284.221189)"><g><path d="M 64.546875 -85.6875 C 65.910156 -86.3125 68.054688 -87.023438 70.984375 -87.828125 C 73.921875 -88.640625 76.882812 -89.046875 79.875 -89.046875 C 85.113281 -89.046875 89.476562 -88.265625 92.96875 -86.703125 C 96.46875 -85.148438 98.59375 -82.875 99.34375 -79.875 C 100.707031 -74.769531 101.984375 -70 103.171875 -65.5625 C 104.359375 -61.132812 105.507812 -56.894531 106.625 -52.84375 C 107.75 -48.789062 108.84375 -44.769531 109.90625 -40.78125 C 110.96875 -36.789062 112 -32.613281 113 -28.25 L 113.9375 -28.25 C 115.050781 -35.851562 116.046875 -43.113281 116.921875 -50.03125 C 117.796875 -56.957031 118.609375 -63.753906 119.359375 -70.421875 C 120.109375 -77.097656 120.851562 -83.710938 121.59375 -90.265625 C 122.34375 -96.816406 123.09375 -103.457031 123.84375 -110.1875 C 128.457031 -112.8125 133.382812 -114.125 138.625 -114.125 C 143.238281 -114.125 147.226562 -113.125 150.59375 -111.125 C 153.96875 -109.125 155.65625 -105.753906 155.65625 -101.015625 C 155.65625 -98.273438 155.375 -94.378906 154.8125 -89.328125 C 154.25 -84.273438 153.5 -78.628906 152.5625 -72.390625 C 151.625 -66.160156 150.53125 -59.613281 149.28125 -52.75 C 148.039062 -45.894531 146.734375 -39.347656 145.359375 -33.109375 C 143.984375 -26.878906 142.578125 -21.238281 141.140625 -16.1875 C 139.710938 -11.132812 138.375 -7.234375 137.125 -4.484375 C 135.257812 -2.742188 132.203125 -1.3125 127.953125 -0.1875 C 123.710938 0.9375 119.347656 1.5 114.859375 1.5 C 109.003906 1.5 104.046875 0.71875 99.984375 -0.84375 C 95.929688 -2.40625 93.472656 -4.617188 92.609375 -7.484375 C 90.984375 -12.472656 89.234375 -18.394531 87.359375 -25.25 C 85.492188 -32.113281 83.5 -39.660156 81.375 -47.890625 C 79.632812 -39.785156 77.828125 -31.863281 75.953125 -24.125 C 74.078125 -16.394531 72.394531 -9.847656 70.90625 -4.484375 C 69.03125 -2.742188 66.222656 -1.3125 62.484375 -0.1875 C 58.742188 0.9375 54.628906 1.5 50.140625 1.5 C 44.523438 1.5 39.441406 0.71875 34.890625 -0.84375 C 30.335938 -2.40625 27.375 -4.617188 26 -7.484375 C 24.875 -9.722656 23.65625 -13.054688 22.34375 -17.484375 C 21.039062 -21.921875 19.703125 -26.972656 18.328125 -32.640625 C 16.960938 -38.316406 15.5625 -44.457031 14.125 -51.0625 C 12.6875 -57.675781 11.375 -64.285156 10.1875 -70.890625 C 9.007812 -77.503906 7.921875 -83.960938 6.921875 -90.265625 C 5.921875 -96.566406 5.171875 -102.332031 4.671875 -107.5625 C 6.421875 -109.1875 8.851562 -110.6875 11.96875 -112.0625 C 15.09375 -113.4375 18.460938 -114.125 22.078125 -114.125 C 26.816406 -114.125 30.710938 -113.09375 33.765625 -111.03125 C 36.816406 -108.96875 38.71875 -105.503906 39.46875 -100.640625 C 41.46875 -87.921875 43.117188 -77.320312 44.421875 -68.84375 C 45.734375 -60.363281 46.796875 -53.410156 47.609375 -47.984375 C 48.421875 -42.554688 49.015625 -38.347656 49.390625 -35.359375 C 49.765625 -32.367188 50.140625 -30 50.515625 -28.25 L 51.453125 -28.25 C 52.566406 -33.238281 53.625 -37.851562 54.625 -42.09375 C 55.625 -46.332031 56.648438 -50.601562 57.703125 -54.90625 C 58.765625 -59.207031 59.859375 -63.820312 60.984375 -68.75 C 62.109375 -73.675781 63.296875 -79.320312 64.546875 -85.6875 Z M 64.546875 -85.6875 "/></g></g></g><g fill="#020d1e" fill-opacity="1"><g transform="translate(315.489407, 284.221189)"><g><path d="M 44.90625 -0.75 C 43.53125 -0.375 41.375 0 38.4375 0.375 C 35.507812 0.75 32.613281 0.9375 29.75 0.9375 C 26.875 0.9375 24.34375 0.71875 22.15625 0.28125 C 19.976562 -0.15625 18.140625 -0.929688 16.640625 -2.046875 C 15.148438 -3.171875 14.03125 -4.734375 13.28125 -6.734375 C 12.53125 -8.734375 12.15625 -11.351562 12.15625 -14.59375 L 12.15625 -113.375 C 13.53125 -113.625 15.710938 -113.960938 18.703125 -114.390625 C 21.703125 -114.828125 24.570312 -115.046875 27.3125 -115.046875 C 30.175781 -115.046875 32.695312 -114.828125 34.875 -114.390625 C 37.0625 -113.960938 38.90625 -113.1875 40.40625 -112.0625 C 41.90625 -110.9375 43.03125 -109.375 43.78125 -107.375 C 44.53125 -105.382812 44.90625 -102.769531 44.90625 -99.53125 Z M 44.90625 -0.75 "/></g></g></g><g fill="#020d1e" fill-opacity="1"><g transform="translate(372.539725, 284.221189)"><g><path d="M 44.34375 -45.078125 C 38.851562 -46.953125 33.863281 -48.851562 29.375 -50.78125 C 24.882812 -52.71875 21.015625 -55.054688 17.765625 -57.796875 C 14.523438 -60.546875 12 -63.820312 10.1875 -67.625 C 8.382812 -71.425781 7.484375 -76.070312 7.484375 -81.5625 C 7.484375 -92.164062 11.566406 -100.644531 19.734375 -107 C 27.898438 -113.363281 39.34375 -116.546875 54.0625 -116.546875 C 59.425781 -116.546875 64.414062 -116.171875 69.03125 -115.421875 C 73.644531 -114.679688 77.601562 -113.53125 80.90625 -111.96875 C 84.21875 -110.40625 86.804688 -108.40625 88.671875 -105.96875 C 90.546875 -103.539062 91.484375 -100.707031 91.484375 -97.46875 C 91.484375 -94.226562 90.734375 -91.453125 89.234375 -89.140625 C 87.734375 -86.835938 85.925781 -84.875 83.8125 -83.25 C 81.070312 -85 77.390625 -86.523438 72.765625 -87.828125 C 68.148438 -89.140625 63.101562 -89.796875 57.625 -89.796875 C 52.007812 -89.796875 47.890625 -89.015625 45.265625 -87.453125 C 42.648438 -85.898438 41.34375 -83.9375 41.34375 -81.5625 C 41.34375 -79.695312 42.148438 -78.171875 43.765625 -76.984375 C 45.390625 -75.796875 47.828125 -74.703125 51.078125 -73.703125 L 60.984375 -70.53125 C 72.710938 -66.789062 81.722656 -62.019531 88.015625 -56.21875 C 94.316406 -50.414062 97.46875 -42.523438 97.46875 -32.546875 C 97.46875 -21.953125 93.289062 -13.378906 84.9375 -6.828125 C 76.582031 -0.273438 64.296875 3 48.078125 3 C 42.335938 3 37.003906 2.53125 32.078125 1.59375 C 27.148438 0.65625 22.847656 -0.710938 19.171875 -2.515625 C 15.492188 -4.328125 12.625 -6.570312 10.5625 -9.25 C 8.507812 -11.9375 7.484375 -15.023438 7.484375 -18.515625 C 7.484375 -22.140625 8.539062 -25.226562 10.65625 -27.78125 C 12.78125 -30.332031 15.085938 -32.296875 17.578125 -33.671875 C 21.078125 -30.929688 25.351562 -28.5625 30.40625 -26.5625 C 35.457031 -24.570312 40.972656 -23.578125 46.953125 -23.578125 C 53.066406 -23.578125 57.367188 -24.507812 59.859375 -26.375 C 62.359375 -28.25 63.609375 -30.429688 63.609375 -32.921875 C 63.609375 -35.421875 62.609375 -37.320312 60.609375 -38.625 C 58.617188 -39.9375 55.8125 -41.21875 52.1875 -42.46875 Z M 44.34375 -45.078125 "/></g></g></g><g fill="#2ea5e4" fill-opacity="1"><g transform="translate(475.55965, 284.221189)"><g><path d="M 6.921875 -87.171875 C 6.046875 -88.546875 5.234375 -90.414062 4.484375 -92.78125 C 3.742188 -95.15625 3.375 -97.65625 3.375 -100.28125 C 3.375 -105.132812 4.460938 -108.625 6.640625 -110.75 C 8.828125 -112.875 11.664062 -113.9375 15.15625 -113.9375 L 96.71875 -113.9375 C 97.59375 -112.5625 98.40625 -110.6875 99.15625 -108.3125 C 99.90625 -105.945312 100.28125 -103.453125 100.28125 -100.828125 C 100.28125 -95.972656 99.1875 -92.484375 97 -90.359375 C 94.8125 -88.234375 91.972656 -87.171875 88.484375 -87.171875 L 67.71875 -87.171875 L 67.71875 -0.75 C 66.351562 -0.375 64.203125 0 61.265625 0.375 C 58.335938 0.75 55.4375 0.9375 52.5625 0.9375 C 49.695312 0.9375 47.171875 0.71875 44.984375 0.28125 C 42.804688 -0.15625 40.96875 -0.929688 39.46875 -2.046875 C 37.976562 -3.171875 36.859375 -4.734375 36.109375 -6.734375 C 35.359375 -8.734375 34.984375 -11.351562 34.984375 -14.59375 L 34.984375 -87.171875 Z M 6.921875 -87.171875 "/></g></g></g><g fill="#2ea5e4" fill-opacity="1"><g transform="translate(579.559599, 284.221189)"><g><path d="M 36.296875 -110 C 38.410156 -111.25 41.617188 -112.429688 45.921875 -113.546875 C 50.222656 -114.671875 54.554688 -115.234375 58.921875 -115.234375 C 65.160156 -115.234375 70.679688 -114.328125 75.484375 -112.515625 C 80.285156 -110.710938 83.375 -107.878906 84.75 -104.015625 C 86.988281 -97.523438 89.414062 -89.976562 92.03125 -81.375 C 94.65625 -72.769531 97.273438 -63.882812 99.890625 -54.71875 C 102.515625 -45.550781 105.070312 -36.507812 107.5625 -27.59375 C 110.0625 -18.675781 112.25 -10.785156 114.125 -3.921875 C 112.625 -2.179688 110.375 -0.78125 107.375 0.28125 C 104.382812 1.34375 100.832031 1.875 96.71875 1.875 C 93.726562 1.875 91.203125 1.625 89.140625 1.125 C 87.085938 0.625 85.40625 -0.125 84.09375 -1.125 C 82.78125 -2.125 81.71875 -3.429688 80.90625 -5.046875 C 80.101562 -6.671875 79.390625 -8.539062 78.765625 -10.65625 L 75.390625 -23.578125 L 41.53125 -23.578125 C 40.53125 -19.828125 39.53125 -15.957031 38.53125 -11.96875 C 37.539062 -7.976562 36.546875 -4.113281 35.546875 -0.375 C 33.796875 0.25 31.953125 0.78125 30.015625 1.21875 C 28.085938 1.65625 25.753906 1.875 23.015625 1.875 C 16.648438 1.875 11.9375 0.785156 8.875 -1.390625 C 5.820312 -3.578125 4.296875 -6.601562 4.296875 -10.46875 C 4.296875 -12.21875 4.546875 -13.960938 5.046875 -15.703125 C 5.546875 -17.453125 6.109375 -19.515625 6.734375 -21.890625 C 7.609375 -25.253906 8.820312 -29.429688 10.375 -34.421875 C 11.9375 -39.410156 13.648438 -44.800781 15.515625 -50.59375 C 17.390625 -56.394531 19.382812 -62.351562 21.5 -68.46875 C 23.625 -74.582031 25.625 -80.347656 27.5 -85.765625 C 29.375 -91.191406 31.085938 -96.023438 32.640625 -100.265625 C 34.203125 -104.515625 35.421875 -107.757812 36.296875 -110 Z M 58.75 -85.875 C 57 -80.632812 55.03125 -74.800781 52.84375 -68.375 C 50.664062 -61.957031 48.703125 -55.441406 46.953125 -48.828125 L 70.15625 -48.828125 C 68.40625 -55.554688 66.625 -62.132812 64.8125 -68.5625 C 63.007812 -74.988281 61.359375 -80.757812 59.859375 -85.875 Z M 58.75 -85.875 "/></g></g></g><g fill="#2ea5e4" fill-opacity="1"><g transform="translate(696.840116, 284.221189)"><g><path d="M 44.90625 -0.75 C 43.53125 -0.375 41.375 0 38.4375 0.375 C 35.507812 0.75 32.613281 0.9375 29.75 0.9375 C 26.875 0.9375 24.34375 0.71875 22.15625 0.28125 C 19.976562 -0.15625 18.140625 -0.929688 16.640625 -2.046875 C 15.148438 -3.171875 14.03125 -4.734375 13.28125 -6.734375 C 12.53125 -8.734375 12.15625 -11.351562 12.15625 -14.59375 L 12.15625 -113.375 C 13.53125 -113.625 15.710938 -113.960938 18.703125 -114.390625 C 21.703125 -114.828125 24.570312 -115.046875 27.3125 -115.046875 C 30.175781 -115.046875 32.695312 -114.828125 34.875 -114.390625 C 37.0625 -113.960938 38.90625 -113.1875 40.40625 -112.0625 C 41.90625 -110.9375 43.03125 -109.375 43.78125 -107.375 C 44.53125 -105.382812 44.90625 -102.769531 44.90625 -99.53125 Z M 44.90625 -0.75 "/></g></g></g><g fill="#2ea5e4" fill-opacity="1"><g transform="translate(753.890434, 284.221189)"><g><path d="M 29.5625 0.5625 C 24.195312 0.5625 19.953125 -0.992188 16.828125 -4.109375 C 13.710938 -7.234375 12.15625 -11.476562 12.15625 -16.84375 L 12.15625 -113.5625 C 13.53125 -113.8125 15.710938 -114.148438 18.703125 -114.578125 C 21.703125 -115.015625 24.570312 -115.234375 27.3125 -115.234375 C 30.175781 -115.234375 32.695312 -115.015625 34.875 -114.578125 C 37.0625 -114.148438 38.90625 -113.375 40.40625 -112.25 C 41.90625 -111.125 43.03125 -109.5625 43.78125 -107.5625 C 44.53125 -105.570312 44.90625 -102.957031 44.90625 -99.71875 L 44.90625 -25.8125 L 87.734375 -25.8125 C 88.609375 -24.445312 89.421875 -22.609375 90.171875 -20.296875 C 90.921875 -17.992188 91.296875 -15.59375 91.296875 -13.09375 C 91.296875 -8.101562 90.234375 -4.578125 88.109375 -2.515625 C 85.992188 -0.460938 83.191406 0.5625 79.703125 0.5625 Z M 29.5625 0.5625 "/></g></g></g></svg>