<svg xmlns="http://www.w3.org/2000/svg" xmlns:xlink="http://www.w3.org/1999/xlink" width="1200" zoomAndPan="magnify" viewBox="0 0 900 374.999991" height="500" preserveAspectRatio="xMidYMid meet" version="1.0"><defs><g/><clipPath id="9418d5e04a"><path d="M 571.175781 98 L 727 98 L 727 120 L 571.175781 120 Z M 571.175781 98 " clip-rule="nonzero"/></clipPath><clipPath id="bc9be7b681"><path d="M 641 28.644531 L 851 28.644531 L 851 122 L 641 122 Z M 641 28.644531 " clip-rule="nonzero"/></clipPath></defs><g clip-path="url(#9418d5e04a)"><path fill="#2ea5e4" d="M 726.371094 109.371094 C 698.753906 103.214844 674.574219 110.738281 647.851562 116.539062 C 621.542969 122.246094 595.859375 118.960938 571.175781 108.242188 C 598.796875 114.40625 622.972656 106.871094 649.695312 101.070312 C 676.003906 95.367188 701.691406 98.652344 726.371094 109.371094 " fill-opacity="1" fill-rule="nonzero"/></g><path fill="#8fd8ff" d="M 609.386719 94.335938 C 634.210938 66.625 673.886719 49.875 710.011719 62.433594 C 727.5625 68.53125 743.976562 78.441406 762.496094 81.472656 C 782.546875 84.757812 800.9375 77.378906 817.765625 67.042969 L 818.585938 68.027344 C 806.640625 81.351562 790.871094 91.425781 772.859375 93.570312 C 753.136719 95.914062 734.429688 88.601562 716.335938 81.769531 C 700.0625 75.613281 685.375 71.773438 667.878906 75.011719 C 647.785156 78.722656 628.75 87.144531 610.164062 95.367188 L 609.386719 94.335938 " fill-opacity="1" fill-rule="nonzero"/><g clip-path="url(#bc9be7b681)"><path fill="#8fd8ff" d="M 641.855469 93.886719 C 658.640625 81.101562 686.140625 84.066406 705.019531 87.832031 C 718.660156 90.558594 731.425781 95.53125 744.707031 99.492188 C 765.152344 105.582031 788.324219 104.519531 807.347656 94.316406 C 816.171875 89.585938 823.785156 82.765625 827.550781 73.261719 C 833.230469 58.949219 828.972656 43.953125 826.40625 29.511719 L 827.453125 28.777344 C 845.605469 40.316406 855.300781 63.636719 848.640625 84.449219 C 841.117188 107.988281 816.882812 120.710938 793.4375 121.71875 C 758.578125 123.230469 731.242188 102.023438 699.101562 93.089844 C 682.492188 88.46875 658.3125 84.503906 642.664062 94.894531 L 641.855469 93.886719 " fill-opacity="1" fill-rule="nonzero"/></g><g fill="#ffffff" fill-opacity="1"><g transform="translate(52.258455, 283.82619)"><g><path d="M 6.890625 -86.6875 C 6.015625 -88.050781 5.203125 -89.910156 4.453125 -92.265625 C 3.710938 -94.628906 3.34375 -97.113281 3.34375 -99.71875 C 3.34375 -104.550781 4.425781 -108.019531 6.59375 -110.125 C 8.769531 -112.238281 11.59375 -113.296875 15.0625 -113.296875 L 96.171875 -113.296875 C 97.046875 -111.929688 97.851562 -110.066406 98.59375 -107.703125 C 99.34375 -105.347656 99.71875 -102.867188 99.71875 -100.265625 C 99.71875 -95.429688 98.628906 -91.957031 96.453125 -89.84375 C 94.285156 -87.738281 91.46875 -86.6875 88 -86.6875 L 67.34375 -86.6875 L 67.34375 -0.75 C 65.976562 -0.375 63.835938 0 60.921875 0.375 C 58.003906 0.75 55.125 0.9375 52.28125 0.9375 C 49.425781 0.9375 46.910156 0.71875 44.734375 0.28125 C 42.566406 -0.15625 40.738281 -0.929688 39.25 -2.046875 C 37.757812 -3.160156 36.640625 -4.707031 35.890625 -6.6875 C 35.148438 -8.675781 34.78125 -11.285156 34.78125 -14.515625 L 34.78125 -86.6875 Z M 6.890625 -86.6875 "/></g></g></g><g fill="#ffffff" fill-opacity="1"><g transform="translate(155.695118, 283.82619)"><g><path d="M 64.1875 -85.203125 C 65.550781 -85.816406 67.6875 -86.523438 70.59375 -87.328125 C 73.507812 -88.140625 76.457031 -88.546875 79.4375 -88.546875 C 84.644531 -88.546875 88.984375 -87.769531 92.453125 -86.21875 C 95.929688 -84.675781 98.039062 -82.414062 98.78125 -79.4375 C 100.144531 -74.351562 101.414062 -69.609375 102.59375 -65.203125 C 103.769531 -60.796875 104.914062 -56.578125 106.03125 -52.546875 C 107.15625 -48.523438 108.242188 -44.53125 109.296875 -40.5625 C 110.347656 -36.59375 111.367188 -32.4375 112.359375 -28.09375 L 113.296875 -28.09375 C 114.410156 -35.65625 115.398438 -42.878906 116.265625 -49.765625 C 117.140625 -56.648438 117.945312 -63.410156 118.6875 -70.046875 C 119.425781 -76.679688 120.164062 -83.253906 120.90625 -89.765625 C 121.65625 -96.273438 122.40625 -102.878906 123.15625 -109.578125 C 127.738281 -112.179688 132.632812 -113.484375 137.84375 -113.484375 C 142.4375 -113.484375 146.40625 -112.488281 149.75 -110.5 C 153.101562 -108.519531 154.78125 -105.171875 154.78125 -100.453125 C 154.78125 -97.722656 154.5 -93.847656 153.9375 -88.828125 C 153.382812 -83.804688 152.640625 -78.191406 151.703125 -71.984375 C 150.773438 -65.785156 149.691406 -59.273438 148.453125 -52.453125 C 147.210938 -45.640625 145.910156 -39.128906 144.546875 -32.921875 C 143.179688 -26.722656 141.785156 -21.113281 140.359375 -16.09375 C 138.929688 -11.070312 137.597656 -7.195312 136.359375 -4.46875 C 134.503906 -2.726562 131.46875 -1.300781 127.25 -0.1875 C 123.03125 0.925781 118.6875 1.484375 114.21875 1.484375 C 108.394531 1.484375 103.46875 0.710938 99.4375 -0.828125 C 95.40625 -2.378906 92.953125 -4.582031 92.078125 -7.4375 C 90.472656 -12.394531 88.738281 -18.285156 86.875 -25.109375 C 85.019531 -31.929688 83.035156 -39.4375 80.921875 -47.625 C 79.179688 -39.5625 77.378906 -31.6875 75.515625 -24 C 73.660156 -16.3125 71.988281 -9.800781 70.5 -4.46875 C 68.644531 -2.726562 65.851562 -1.300781 62.125 -0.1875 C 58.40625 0.925781 54.316406 1.484375 49.859375 1.484375 C 44.273438 1.484375 39.21875 0.710938 34.6875 -0.828125 C 30.164062 -2.378906 27.222656 -4.582031 25.859375 -7.4375 C 24.742188 -9.675781 23.535156 -12.992188 22.234375 -17.390625 C 20.929688 -21.796875 19.597656 -26.816406 18.234375 -32.453125 C 16.867188 -38.097656 15.472656 -44.207031 14.046875 -50.78125 C 12.617188 -57.351562 11.316406 -63.925781 10.140625 -70.5 C 8.960938 -77.070312 7.875 -83.488281 6.875 -89.75 C 5.882812 -96.019531 5.144531 -101.757812 4.65625 -106.96875 C 6.382812 -108.582031 8.800781 -110.070312 11.90625 -111.4375 C 15.007812 -112.800781 18.359375 -113.484375 21.953125 -113.484375 C 26.660156 -113.484375 30.535156 -112.457031 33.578125 -110.40625 C 36.617188 -108.363281 38.507812 -104.921875 39.25 -100.078125 C 41.238281 -87.429688 42.882812 -76.890625 44.1875 -68.453125 C 45.488281 -60.023438 46.539062 -53.113281 47.34375 -47.71875 C 48.144531 -42.320312 48.734375 -38.132812 49.109375 -35.15625 C 49.484375 -32.175781 49.859375 -29.820312 50.234375 -28.09375 L 51.15625 -28.09375 C 52.269531 -33.050781 53.320312 -37.640625 54.3125 -41.859375 C 55.3125 -46.078125 56.335938 -50.320312 57.390625 -54.59375 C 58.441406 -58.875 59.523438 -63.460938 60.640625 -68.359375 C 61.765625 -73.265625 62.945312 -78.878906 64.1875 -85.203125 Z M 64.1875 -85.203125 "/></g></g></g><g fill="#ffffff" fill-opacity="1"><g transform="translate(316.245178, 283.82619)"><g><path d="M 44.640625 -0.75 C 43.273438 -0.375 41.132812 0 38.21875 0.375 C 35.3125 0.75 32.429688 0.9375 29.578125 0.9375 C 26.722656 0.9375 24.210938 0.71875 22.046875 0.28125 C 19.878906 -0.15625 18.050781 -0.929688 16.5625 -2.046875 C 15.070312 -3.160156 13.953125 -4.707031 13.203125 -6.6875 C 12.460938 -8.675781 12.09375 -11.285156 12.09375 -14.515625 L 12.09375 -112.734375 C 13.457031 -112.984375 15.625 -113.320312 18.59375 -113.75 C 21.570312 -114.1875 24.425781 -114.40625 27.15625 -114.40625 C 30.007812 -114.40625 32.519531 -114.1875 34.6875 -113.75 C 36.863281 -113.320312 38.695312 -112.550781 40.1875 -111.4375 C 41.675781 -110.320312 42.789062 -108.769531 43.53125 -106.78125 C 44.269531 -104.800781 44.640625 -102.195312 44.640625 -98.96875 Z M 44.640625 -0.75 "/></g></g></g><g fill="#ffffff" fill-opacity="1"><g transform="translate(372.986518, 283.82619)"><g><path d="M 44.09375 -44.828125 C 38.632812 -46.691406 33.671875 -48.582031 29.203125 -50.5 C 24.742188 -52.425781 20.898438 -54.753906 17.671875 -57.484375 C 14.453125 -60.210938 11.941406 -63.46875 10.140625 -67.25 C 8.335938 -71.03125 7.4375 -75.648438 7.4375 -81.109375 C 7.4375 -91.648438 11.5 -100.082031 19.625 -106.40625 C 27.75 -112.726562 39.128906 -115.890625 53.765625 -115.890625 C 59.097656 -115.890625 64.054688 -115.519531 68.640625 -114.78125 C 73.234375 -114.039062 77.171875 -112.894531 80.453125 -111.34375 C 83.742188 -109.789062 86.316406 -107.804688 88.171875 -105.390625 C 90.035156 -102.972656 90.96875 -100.148438 90.96875 -96.921875 C 90.96875 -93.691406 90.222656 -90.929688 88.734375 -88.640625 C 87.242188 -86.347656 85.445312 -84.394531 83.34375 -82.78125 C 80.613281 -84.519531 76.953125 -86.039062 72.359375 -87.34375 C 67.773438 -88.644531 62.753906 -89.296875 57.296875 -89.296875 C 51.710938 -89.296875 47.617188 -88.519531 45.015625 -86.96875 C 42.410156 -85.414062 41.109375 -83.460938 41.109375 -81.109375 C 41.109375 -79.242188 41.914062 -77.722656 43.53125 -76.546875 C 45.144531 -75.367188 47.5625 -74.285156 50.78125 -73.296875 L 60.640625 -70.140625 C 72.304688 -66.410156 81.269531 -61.660156 87.53125 -55.890625 C 93.789062 -50.128906 96.921875 -42.289062 96.921875 -32.375 C 96.921875 -21.832031 92.765625 -13.304688 84.453125 -6.796875 C 76.148438 -0.285156 63.9375 2.96875 47.8125 2.96875 C 42.101562 2.96875 36.800781 2.503906 31.90625 1.578125 C 27.007812 0.648438 22.726562 -0.707031 19.0625 -2.5 C 15.40625 -4.300781 12.550781 -6.535156 10.5 -9.203125 C 8.457031 -11.867188 7.4375 -14.941406 7.4375 -18.421875 C 7.4375 -22.015625 8.488281 -25.082031 10.59375 -27.625 C 12.707031 -30.164062 15.003906 -32.117188 17.484375 -33.484375 C 20.960938 -30.753906 25.210938 -28.394531 30.234375 -26.40625 C 35.253906 -24.425781 40.738281 -23.4375 46.6875 -23.4375 C 52.769531 -23.4375 57.050781 -24.363281 59.53125 -26.21875 C 62.007812 -28.082031 63.25 -30.253906 63.25 -32.734375 C 63.25 -35.222656 62.253906 -37.117188 60.265625 -38.421875 C 58.285156 -39.722656 55.5 -40.992188 51.90625 -42.234375 Z M 44.09375 -44.828125 "/></g></g></g><g fill="#8fd8ff" fill-opacity="1"><g transform="translate(475.48576, 283.82619)"><g><path d="M 6.890625 -86.6875 C 6.015625 -88.050781 5.203125 -89.910156 4.453125 -92.265625 C 3.710938 -94.628906 3.34375 -97.113281 3.34375 -99.71875 C 3.34375 -104.550781 4.425781 -108.019531 6.59375 -110.125 C 8.769531 -112.238281 11.59375 -113.296875 15.0625 -113.296875 L 96.171875 -113.296875 C 97.046875 -111.929688 97.851562 -110.066406 98.59375 -107.703125 C 99.34375 -105.347656 99.71875 -102.867188 99.71875 -100.265625 C 99.71875 -95.429688 98.628906 -91.957031 96.453125 -89.84375 C 94.285156 -87.738281 91.46875 -86.6875 88 -86.6875 L 67.34375 -86.6875 L 67.34375 -0.75 C 65.976562 -0.375 63.835938 0 60.921875 0.375 C 58.003906 0.75 55.125 0.9375 52.28125 0.9375 C 49.425781 0.9375 46.910156 0.71875 44.734375 0.28125 C 42.566406 -0.15625 40.738281 -0.929688 39.25 -2.046875 C 37.757812 -3.160156 36.640625 -4.707031 35.890625 -6.6875 C 35.148438 -8.675781 34.78125 -11.285156 34.78125 -14.515625 L 34.78125 -86.6875 Z M 6.890625 -86.6875 "/></g></g></g><g fill="#8fd8ff" fill-opacity="1"><g transform="translate(578.922422, 283.82619)"><g><path d="M 36.09375 -109.390625 C 38.195312 -110.628906 41.390625 -111.804688 45.671875 -112.921875 C 49.953125 -114.035156 54.257812 -114.59375 58.59375 -114.59375 C 64.800781 -114.59375 70.289062 -113.691406 75.0625 -111.890625 C 79.832031 -110.097656 82.898438 -107.28125 84.265625 -103.4375 C 86.503906 -96.988281 88.925781 -89.484375 91.53125 -80.921875 C 94.132812 -72.367188 96.738281 -63.53125 99.34375 -54.40625 C 101.945312 -45.289062 104.488281 -36.300781 106.96875 -27.4375 C 109.445312 -18.570312 111.617188 -10.726562 113.484375 -3.90625 C 111.992188 -2.164062 109.757812 -0.769531 106.78125 0.28125 C 103.800781 1.332031 100.265625 1.859375 96.171875 1.859375 C 93.203125 1.859375 90.691406 1.609375 88.640625 1.109375 C 86.597656 0.617188 84.925781 -0.117188 83.625 -1.109375 C 82.320312 -2.109375 81.265625 -3.410156 80.453125 -5.015625 C 79.648438 -6.628906 78.9375 -8.492188 78.3125 -10.609375 L 74.96875 -23.4375 L 41.296875 -23.4375 C 40.304688 -19.71875 39.3125 -15.875 38.3125 -11.90625 C 37.320312 -7.9375 36.332031 -4.09375 35.34375 -0.375 C 33.601562 0.25 31.769531 0.773438 29.84375 1.203125 C 27.925781 1.640625 25.601562 1.859375 22.875 1.859375 C 16.550781 1.859375 11.867188 0.773438 8.828125 -1.390625 C 5.796875 -3.566406 4.28125 -6.578125 4.28125 -10.421875 C 4.28125 -12.148438 4.523438 -13.882812 5.015625 -15.625 C 5.515625 -17.363281 6.078125 -19.410156 6.703125 -21.765625 C 7.566406 -25.109375 8.773438 -29.257812 10.328125 -34.21875 C 11.878906 -39.1875 13.582031 -44.550781 15.4375 -50.3125 C 17.300781 -56.082031 19.285156 -62.003906 21.390625 -68.078125 C 23.503906 -74.160156 25.488281 -79.898438 27.34375 -85.296875 C 29.207031 -90.691406 30.910156 -95.492188 32.453125 -99.703125 C 34.003906 -103.921875 35.21875 -107.148438 36.09375 -109.390625 Z M 58.40625 -85.390625 C 56.675781 -80.179688 54.722656 -74.378906 52.546875 -67.984375 C 50.378906 -61.597656 48.425781 -55.117188 46.6875 -48.546875 L 69.765625 -48.546875 C 68.023438 -55.242188 66.253906 -61.785156 64.453125 -68.171875 C 62.660156 -74.566406 61.019531 -80.304688 59.53125 -85.390625 Z M 58.40625 -85.390625 "/></g></g></g><g fill="#8fd8ff" fill-opacity="1"><g transform="translate(695.567714, 283.82619)"><g><path d="M 44.640625 -0.75 C 43.273438 -0.375 41.132812 0 38.21875 0.375 C 35.3125 0.75 32.429688 0.9375 29.578125 0.9375 C 26.722656 0.9375 24.210938 0.71875 22.046875 0.28125 C 19.878906 -0.15625 18.050781 -0.929688 16.5625 -2.046875 C 15.070312 -3.160156 13.953125 -4.707031 13.203125 -6.6875 C 12.460938 -8.675781 12.09375 -11.285156 12.09375 -14.515625 L 12.09375 -112.734375 C 13.457031 -112.984375 15.625 -113.320312 18.59375 -113.75 C 21.570312 -114.1875 24.425781 -114.40625 27.15625 -114.40625 C 30.007812 -114.40625 32.519531 -114.1875 34.6875 -113.75 C 36.863281 -113.320312 38.695312 -112.550781 40.1875 -111.4375 C 41.675781 -110.320312 42.789062 -108.769531 43.53125 -106.78125 C 44.269531 -104.800781 44.640625 -102.195312 44.640625 -98.96875 Z M 44.640625 -0.75 "/></g></g></g><g fill="#8fd8ff" fill-opacity="1"><g transform="translate(752.309054, 283.82619)"><g><path d="M 29.390625 0.5625 C 24.054688 0.5625 19.835938 -0.988281 16.734375 -4.09375 C 13.640625 -7.195312 12.09375 -11.414062 12.09375 -16.75 L 12.09375 -112.921875 C 13.457031 -113.171875 15.625 -113.507812 18.59375 -113.9375 C 21.570312 -114.375 24.425781 -114.59375 27.15625 -114.59375 C 30.007812 -114.59375 32.519531 -114.375 34.6875 -113.9375 C 36.863281 -113.507812 38.695312 -112.734375 40.1875 -111.609375 C 41.675781 -110.492188 42.789062 -108.941406 43.53125 -106.953125 C 44.269531 -104.972656 44.640625 -102.375 44.640625 -99.15625 L 44.640625 -25.671875 L 87.25 -25.671875 C 88.113281 -24.304688 88.914062 -22.476562 89.65625 -20.1875 C 90.40625 -17.894531 90.78125 -15.503906 90.78125 -13.015625 C 90.78125 -8.054688 89.722656 -4.550781 87.609375 -2.5 C 85.503906 -0.457031 82.71875 0.5625 79.25 0.5625 Z M 29.390625 0.5625 "/></g></g></g></svg>