<svg width="1200" height="1200" viewBox="0 0 1200 1200" fill="none" xmlns="http://www.w3.org/2000/svg">
<g clip-path="url(#clip0_295_962)">
<path opacity="0.99" fill-rule="evenodd" clip-rule="evenodd" d="M315.75 433.8C371.583 433.8 427.418 433.8 483.25 433.8C495.539 437.581 500.361 446.516 497.714 460.605C495.393 467.472 491.05 471.806 484.679 473.608C426.593 474.015 368.496 474.416 310.393 474.808C254.533 480.325 207.807 506.13 170.214 552.223C157.371 568.712 146.657 586.849 138.071 606.634C126.405 634.106 114.738 661.578 103.071 689.05C93.9344 714.849 97.0296 738.587 112.357 760.264C122.444 773.216 135.122 780.885 150.393 783.268C169.373 783.727 188.361 783.927 207.357 783.868C226.827 783.924 246.291 783.724 265.75 783.268C305.371 778.128 336.026 756.99 357.714 719.856C360.487 714.846 362.987 709.645 365.214 704.253C369.184 693.578 373.291 682.976 377.536 672.447C366.811 676.541 356.097 680.809 345.393 685.249C335.206 687.512 327.885 683.444 323.428 673.047C320.518 661.617 323.673 653.016 332.893 647.242C357.485 637.081 382.128 627.079 406.821 617.236C415.128 615.722 421.618 618.856 426.286 626.638C435.928 655.172 445.214 683.844 454.143 712.654C454.896 724.778 450.075 732.446 439.678 735.659C430.729 736.881 424.121 733.08 419.857 724.257C416.422 713.513 412.851 702.844 409.143 692.25C405.165 702.819 401.117 713.354 397 723.857C376.451 770.211 344.129 801.217 300.036 816.875C287.616 820.949 274.997 823.416 262.178 824.276C225.512 824.276 188.845 824.276 152.178 824.276C117.816 820.742 91.8039 802.472 74.1427 769.466C67.1745 755.32 63.0674 740.251 61.8213 724.257C61.8213 719.056 61.8213 713.855 61.8213 708.654C62.7817 697.413 65.1031 686.477 68.7856 675.847C82.66 642.495 96.8267 609.288 111.286 576.228C143.136 512.684 189.982 469.409 251.821 446.403C272.705 439.17 294.015 434.969 315.75 433.8Z" fill="#ED3868"/>
<path opacity="0.992" fill-rule="evenodd" clip-rule="evenodd" d="M698.607 824.276C651.347 824.276 604.082 824.276 556.822 824.276C525.236 820.556 502.557 802.686 488.786 770.666C479.065 744.819 479.54 719.214 490.215 693.851C501.761 669.579 513.311 645.308 524.857 621.037C548.918 574.376 584.69 546.038 632.179 536.02C636.093 535.34 640.022 534.807 643.965 534.42C657.115 533.974 670.268 533.774 683.429 533.82C694.797 533.886 706.168 533.953 717.536 534.02C744.815 537.383 764.043 553.053 775.215 581.029C783.59 607.161 780.968 631.832 767.357 655.043C751.686 680.733 729.957 695.336 702.179 698.852C657.893 698.985 613.607 699.119 569.322 699.252C557.518 698.858 546.447 701.792 536.107 708.054C518.207 721.384 514.34 738.654 524.5 759.864C532.443 773.822 543.815 781.756 558.607 783.668C605.393 783.802 652.179 783.935 698.965 784.068C707.132 785.81 712.19 791.211 714.143 800.272C714.979 813.218 709.8 821.219 698.607 824.276ZM650.75 574.227C672.179 574.161 693.607 574.227 715.036 574.428C727.807 576.335 736.793 583.869 742 597.032C744.618 605.3 744.618 613.568 742 621.837C734.082 642.703 720.093 654.906 700.036 658.444C653.136 658.965 606.229 659.232 559.322 659.244C555.35 659.55 551.422 660.15 547.536 661.044C553.607 644.518 561.882 629.449 572.357 615.836C593.682 590.723 619.815 576.853 650.75 574.227Z" fill="#ED3868"/>
<path opacity="0.992" fill-rule="evenodd" clip-rule="evenodd" d="M1061.82 617.036C1061.82 622.103 1061.82 627.171 1061.82 632.239C1060.39 645.522 1056.76 658.057 1050.93 669.846C1039.59 693.781 1028.16 717.652 1016.64 741.46C991.29 787.55 954.561 814.688 906.465 822.876C902.365 823.384 898.318 823.85 894.322 824.276C871.583 824.276 848.847 824.276 826.108 824.276C797.033 820.311 777.329 802.974 767 772.266C761.772 753.327 762.725 734.79 769.858 716.655C783.725 684.306 806.522 665.303 838.25 659.644C883.718 659.117 929.197 658.85 974.679 658.844C985.893 659.186 996.49 656.519 1006.46 650.842C1025.62 637.404 1029.73 619.6 1018.79 597.432C1010.71 584 999.461 576.332 985.036 574.427C938.25 574.294 891.465 574.161 844.679 574.027C836.286 572.094 831.225 566.426 829.5 557.024C829 544.518 834.179 536.849 845.036 534.019C892.297 533.753 939.561 533.753 986.822 534.019C1016.12 537.135 1037.96 552.938 1052.36 581.429C1057.57 592.662 1060.73 604.531 1061.82 617.036ZM996.108 697.051C996.372 696.999 996.611 697.066 996.822 697.251C992.05 707.878 986.872 718.213 981.286 728.257C959.715 761.918 930.368 780.388 893.25 783.668C870.861 784.058 848.479 783.925 826.108 783.268C809.783 778.918 800.972 767.383 799.679 748.661C800.561 737.616 804.193 727.881 810.572 719.456C821.011 706.175 834.165 699.441 850.036 699.252C894.918 699.118 939.797 698.985 984.679 698.852C988.579 698.573 992.39 697.973 996.108 697.051Z" fill="#ED3868"/>
</g>
<defs>
<clipPath id="clip0_295_962">
<rect width="1000" height="390.476" fill="white" transform="translate(62 434)"/>
</clipPath>
</defs>
</svg>
